<mxfile host="65bd71144e" modified="2021-01-02T03:57:01.006Z" agent="5.0 (Macintosh; Intel Mac OS X 10_15_7) AppleWebKit/537.36 (KHTML, like Gecko) Code/1.52.1 Chrome/83.0.4103.122 Electron/9.3.5 Safari/537.36" etag="WkMqhU-lkxSri29G3SDX" version="13.10.0" type="embed">
    <diagram id="ozson1Mpx076eq1y-JPa" name="ページ1">
        <mxGraphModel dx="1412" dy="648" grid="0" gridSize="10" guides="1" tooltips="1" connect="1" arrows="1" fold="1" page="1" pageScale="1" pageWidth="827" pageHeight="1169" math="0" shadow="0">
            <root>
                <mxCell id="0"/>
                <mxCell id="1" parent="0"/>
                <mxCell id="5" value="" style="whiteSpace=wrap;html=1;aspect=fixed;" parent="1" vertex="1">
                    <mxGeometry x="185" y="324" width="29" height="29" as="geometry"/>
                </mxCell>
                <mxCell id="12" value="" style="pointerEvents=1;verticalLabelPosition=bottom;shadow=0;dashed=0;align=center;html=1;verticalAlign=top;shape=mxgraph.electrical.resistors.resistor_2;rotation=-90;" parent="1" vertex="1">
                    <mxGeometry x="455.5" y="359.5" width="61.33" height="20" as="geometry"/>
                </mxCell>
                <mxCell id="14" value="" style="endArrow=none;html=1;" parent="1" edge="1">
                    <mxGeometry width="50" height="50" relative="1" as="geometry">
                        <mxPoint x="199" y="382.5" as="sourcePoint"/>
                        <mxPoint x="199" y="295.5" as="targetPoint"/>
                    </mxGeometry>
                </mxCell>
                <mxCell id="15" value="" style="endArrow=none;html=1;entryX=1;entryY=0.5;entryDx=0;entryDy=0;" parent="1" target="5" edge="1">
                    <mxGeometry width="50" height="50" relative="1" as="geometry">
                        <mxPoint x="486" y="339" as="sourcePoint"/>
                        <mxPoint x="493" y="454" as="targetPoint"/>
                        <Array as="points">
                            <mxPoint x="296" y="339"/>
                        </Array>
                    </mxGeometry>
                </mxCell>
                <mxCell id="3" value="&lt;font style=&quot;font-size: 18px&quot; face=&quot;Times New Roman&quot;&gt;SMA触覚センサ&lt;/font&gt;" style="shape=datastore;whiteSpace=wrap;html=1;" parent="1" vertex="1">
                    <mxGeometry x="282" y="302" width="142.05" height="73" as="geometry"/>
                </mxCell>
                <mxCell id="16" value="" style="endArrow=none;html=1;" parent="1" edge="1">
                    <mxGeometry width="50" height="50" relative="1" as="geometry">
                        <mxPoint x="482" y="338.5" as="sourcePoint"/>
                        <mxPoint x="622" y="338.5" as="targetPoint"/>
                    </mxGeometry>
                </mxCell>
                <mxCell id="17" value="&lt;font face=&quot;Times New Roman&quot;&gt;&lt;i&gt;&lt;span style=&quot;font-size: 24px&quot;&gt;V&lt;/span&gt;&lt;font style=&quot;font-size: 14px&quot;&gt;OUT&lt;/font&gt;&lt;/i&gt;&lt;/font&gt;" style="text;html=1;align=center;verticalAlign=middle;resizable=0;points=[];autosize=1;fontSize=20;" parent="1" vertex="1">
                    <mxGeometry x="656" y="322" width="52" height="33" as="geometry"/>
                </mxCell>
                <mxCell id="18" value="" style="verticalLabelPosition=bottom;shadow=0;dashed=0;align=center;html=1;verticalAlign=top;strokeWidth=1;shape=ellipse;perimeter=ellipsePerimeter;" parent="1" vertex="1">
                    <mxGeometry x="619" y="331.5" width="15" height="15" as="geometry"/>
                </mxCell>
                <mxCell id="19" value="&lt;font face=&quot;Times New Roman&quot;&gt;&lt;i&gt;&lt;font&gt;&lt;font style=&quot;font-size: 24px&quot;&gt;V&lt;/font&gt;&lt;font style=&quot;font-size: 14px&quot;&gt;CC&lt;/font&gt;&lt;/font&gt;&lt;/i&gt;&lt;font style=&quot;font-size: 20px&quot;&gt;&amp;nbsp;&lt;/font&gt;&lt;font style=&quot;font-size: 24px&quot;&gt;= 3.3V&lt;/font&gt;&lt;/font&gt;" style="text;html=1;align=center;verticalAlign=middle;resizable=0;points=[];autosize=1;fontSize=20;" parent="1" vertex="1">
                    <mxGeometry x="67" y="322" width="114" height="33" as="geometry"/>
                </mxCell>
                <mxCell id="20" value="&lt;font style=&quot;font-size: 24px&quot; face=&quot;Times New Roman&quot;&gt;10Ω&lt;/font&gt;" style="text;html=1;align=center;verticalAlign=middle;resizable=0;points=[];autosize=1;fontSize=20;" parent="1" vertex="1">
                    <mxGeometry x="506.42" y="359.5" width="52" height="29" as="geometry"/>
                </mxCell>
                <mxCell id="21" value="" style="pointerEvents=1;verticalLabelPosition=bottom;shadow=0;dashed=0;align=center;html=1;verticalAlign=top;shape=mxgraph.electrical.signal_sources.protective_earth;" parent="1" vertex="1">
                    <mxGeometry x="462.91" y="408" width="46.51" height="35" as="geometry"/>
                </mxCell>
                <mxCell id="22" value="" style="endArrow=none;html=1;entryX=0;entryY=0.5;entryDx=0;entryDy=0;entryPerimeter=0;" parent="1" target="12" edge="1">
                    <mxGeometry width="50" height="50" relative="1" as="geometry">
                        <mxPoint x="486" y="417" as="sourcePoint"/>
                        <mxPoint x="459" y="573" as="targetPoint"/>
                    </mxGeometry>
                </mxCell>
                <mxCell id="23" value="&lt;font style=&quot;font-size: 24px&quot; face=&quot;Times New Roman&quot;&gt;0V&lt;/font&gt;" style="text;html=1;align=center;verticalAlign=middle;resizable=0;points=[];autosize=1;fontSize=20;" parent="1" vertex="1">
                    <mxGeometry x="467.17" y="449" width="39" height="29" as="geometry"/>
                </mxCell>
                <mxCell id="24" value="&lt;font face=&quot;Times New Roman&quot;&gt;&lt;i&gt;&lt;span style=&quot;font-size: 24px&quot;&gt;R&lt;/span&gt;&lt;font style=&quot;font-size: 14px&quot;&gt;sma&lt;/font&gt;&lt;/i&gt;&lt;/font&gt;" style="text;html=1;align=center;verticalAlign=middle;resizable=0;points=[];autosize=1;fontSize=20;" vertex="1" parent="1">
                    <mxGeometry x="334.03" y="265" width="47" height="33" as="geometry"/>
                </mxCell>
            </root>
        </mxGraphModel>
    </diagram>
</mxfile>